<?xml version="1.0" encoding="utf-8"?>

<!DOCTYPE svg PUBLIC "-//W3C//DTD SVG 1.1//EN" "http://www.w3.org/Graphics/SVG/1.1/DTD/svg11.dtd">
<svg version="1.1" id="Layer_1" xmlns="http://www.w3.org/2000/svg" xmlns:xlink="http://www.w3.org/1999/xlink" x="0px" y="0px"
	 viewBox="0 0 2609.108 731.503" enable-background="new 0 0 2609.108 731.503" xml:space="preserve">
<g id="Layer_x0020_1">
	<g id="_804538528">
		<path d="M343.721,418.905c0.553-4.422-0.069-23.896,6.886-44.761c-403.78-69.617-407.04,356.483-149.346,310.098
			c81.439-13.257,21.136-64.744,10.329-21.52c-112.201,33-189.207-53.481-152.574-143.536
			C95.332,423.857,254.394,404.497,343.721,418.905z M59.016,212.316C22.384,122.261,99.39,35.78,211.591,68.78
			c10.806,43.225,71.109-8.262-10.329-21.52C-56.432,0.876-53.172,426.976,350.608,357.359c-6.955-20.865-6.334-40.339-6.886-44.761
			C254.394,327.005,95.332,307.646,59.016,212.316z M2484.496,448.817c135.796,71.38,77.671,261.94-85.648,213.905
			c-7.253-29.01-43.271-15.229-27.976,5.165c15.15,18.646,76.4,23.776,112.978,15.494
			c164.303-34.59,151.205-363.025-217.779-310.313l-6.241,1.076c4.751,14.252,6.886,30.957,6.886,44.761
			C2346.906,406.375,2436.316,423.203,2484.496,448.817z M2266.717,312.598c0,13.804-2.136,30.509-6.886,44.761l6.241,1.076
			c368.984,52.712,382.082-275.723,217.779-310.313c-36.578-8.282-97.828-3.152-112.978,15.494
			c-15.296,20.394,20.723,34.175,27.976,5.165c163.319-48.035,221.444,142.525,85.648,213.905
			C2436.316,308.3,2346.906,325.127,2266.717,312.598z M1464.465,600.746c-7.102-11.836-13.557-25.824-16.355-39.596
			c10.289-24.007-23.871-34.107-19.368-2.582c12.854,94.649,137.38,212.034,354.429,103.509
			c151.495-77.031,299.222-200.864,453.634-237.362c0.746-8.204-0.569-30.738-6.671-44.976
			c-191.601,40.766-403.962,253.017-569.195,284.49C1578.952,679.845,1507.267,671.687,1464.465,600.746z M1660.939,67.274
			c165.233,31.473,377.593,243.724,569.195,284.49c6.102-14.238,7.417-36.772,6.671-44.976
			c-154.412-36.497-302.139-160.33-453.634-237.362c-217.048-108.524-341.575,8.86-354.429,103.509
			c-4.503,31.524,29.656,21.424,19.368-2.582c2.798-13.773,9.253-27.76,16.355-39.596
			C1507.267,59.815,1578.952,51.657,1660.939,67.274z M380.305,379.739c-5.852,15.362-6.671,28.155-6.671,44.976
			c234.499,54.437,432.311,299.002,643.437,278.895c58.005-5.874,107.716-30.555,144.827-93.18c53.36-87.662-13.72-82.8,0.646-49.28
			c-24.403,111.555-144.002,127.395-255.223,92.534C768.658,608.822,553.311,416.549,380.305,379.739z M907.321,77.818
			c111.221-34.86,230.82-19.021,255.223,92.534c-14.366,33.52,52.714,38.382-0.646-49.28
			c-37.111-62.625-86.823-87.306-144.827-93.18C805.945,7.786,608.132,252.35,373.634,306.787c0,16.821,0.819,29.614,6.671,44.976
			C553.311,314.954,768.658,122.68,907.321,77.818z M360.987,365.751c-45.462,99.446,33.93,244.972,247.856,173.664l-19.583-11.836
			c-178.984,72.631-254.183-78.487-206.254-161.828c-47.929-83.34,27.271-234.459,206.254-161.828l19.583-11.836
			C394.918,120.779,315.526,266.305,360.987,365.751z M2230.741,365.751c46.987,80.005-38.243,231.349-209.563,161.828
			l-19.368,11.836c75.652,37.826,178.906,32.705,236.501-43.47c24.631-32.02,32.277-84.882,11.119-130.194
			c21.158-45.312,13.512-98.173-11.119-130.194c-57.595-76.174-160.848-81.296-236.501-43.47l19.368,11.836
			C2192.498,134.402,2277.728,285.746,2230.741,365.751z M1734.867,365.751c1.59,1.034,3.131,2.041,4.619,3.013
			c-88.468,88.468-179.25,48.072-174.596-3.013c-4.654-51.085,86.128-91.48,174.596-3.013
			C1737.997,363.711,1736.457,364.717,1734.867,365.751z M1044.973,365.751c0.154,27.184-25.15,56.677-72.878,54.229
			c-38.647-1.982-73.837-23.911-101.142-51.217c1.568-1.024,3.124-2.028,4.669-3.013c-1.545-0.985-3.102-1.989-4.669-3.013
			c27.305-27.305,62.496-49.235,101.142-51.217C1019.824,309.074,1045.127,338.567,1044.973,365.751z M1547.28,365.751
			c-1.953,37.474,28.296,77.089,92.139,72.736c45.015-2.001,84.175-27.363,115.776-58.964c22.512,15.56,39.94,28.129,61.116,43.254
			c-247.972,176.191-418.316,79.357-389.585-57.027c-28.731-136.384,141.613-233.218,389.585-57.027
			c-21.176,15.126-38.604,27.695-61.116,43.254c-31.6-31.6-70.76-56.963-115.776-58.964
			C1575.576,288.662,1545.327,328.277,1547.28,365.751z M1408.113,365.751c-5.892,30.645-3.92,61.425,8.363,85.433
			c50.608,100.039,214.061,159.729,437.71-1.506c41.611,28.807,68.137,45.488,93.826,60.901l17.861-10.975
			c-7.068-4.283-40.018-22.725-95.547-61.546c42.385-30.693,80.826-54.443,115.489-72.306
			c-34.663-17.863-73.103-41.613-115.489-72.306c55.529-38.821,88.48-57.263,95.547-61.546l-17.861-10.975
			c-25.688,15.413-52.215,32.093-93.826,60.901c-223.649-161.235-387.101-101.546-437.71-1.506
			C1404.193,304.326,1402.221,335.106,1408.113,365.751z M1897.561,365.751c-22.657,15.265-44.514,30.997-65.326,45.622
			c-35.667-25.418-47.198-33.821-64.129-45.622c16.931-11.8,28.462-20.204,64.129-45.622
			C1853.047,334.754,1874.904,350.486,1897.561,365.751z M842.547,365.751c-16.66,11.438-29.221,20.592-64.344,45.622
			c-23.867-17.001-45.455-32.183-65.425-45.622c19.97-13.439,41.557-28.62,65.425-45.622
			C813.326,345.159,825.887,354.313,842.547,365.751z M632.061,365.751c39.173,22.193,72.755,46.746,108.052,72.306
			c-44.957,31.43-74.284,49.039-95.547,61.546l18.076,10.975c44.014-26.821,80.513-51.471,93.61-60.901
			c285.628,205.918,466.907,54.959,449.288-83.927c17.619-138.886-163.66-289.844-449.288-83.927
			c-13.097-9.43-49.596-34.079-93.61-60.901l-18.076,10.975c21.263,12.508,50.59,30.116,95.547,61.546
			C704.816,319.005,671.234,343.558,632.061,365.751z M1184.072,365.751c26.723,130.597-135.453,237.697-389.729,57.027
			c19.15-13.899,38.339-27.66,60.901-43.254c22.729,22.729,54.16,45.66,85.648,54.014c81.598,23.314,123.698-23.877,122.644-67.787
			c1.054-43.91-41.047-91.1-122.644-67.787c-31.488,8.354-62.919,31.285-85.648,54.014c-22.562-15.594-41.751-29.355-60.901-43.254
			C1048.619,128.054,1210.795,235.154,1184.072,365.751z"/>
	</g>
</g>
</svg>
